<svg width="281" height="329" viewBox="0 0 281 329" fill="none" xmlns="http://www.w3.org/2000/svg">
<path fill-rule="evenodd" clip-rule="evenodd" d="M103.096 197.798C101.521 198.211 99.9792 198.002 98.5018 197.489C93.534 195.764 89.3742 192.753 85.6261 189.146C84.035 187.615 82.5686 185.955 81.0449 184.353C81.1079 184.278 81.1708 184.204 81.2337 184.129C82.3793 184.904 83.525 185.678 84.6706 186.453C75.2368 177.34 72.8625 166.196 74.981 153.677C73.3661 157.24 73.1308 161.064 72.6103 164.825L72.2397 164.808C72.2838 162.03 72.328 159.25 72.3722 156.468C71.8955 157.773 71.4012 159.126 70.8707 160.578C70.7294 160.348 70.5972 160.133 70.417 159.841C69.9092 163.125 69.4108 166.35 68.9114 169.575C68.8078 169.568 68.7043 169.562 68.6005 169.556C68.8308 165.885 69.0608 162.215 69.2908 158.544L69.1898 158.491C68.7917 160.121 68.3932 161.752 67.9943 163.382C67.8708 163.361 67.7477 163.341 67.6251 163.32C68.0356 158.783 68.4461 154.245 68.8567 149.708C66.7658 157.41 66.3551 165.251 66.8056 173.206C66.6547 172.668 66.5331 172.122 66.4415 171.571C65.663 164.744 65.9131 157.933 66.7438 151.127C67.7546 142.843 72.4551 137.489 79.9996 134.409C83.5359 132.966 87.251 132.354 91.0576 132.266C91.9415 132.275 92.8252 132.232 93.7038 132.136C85.5722 130.478 77.5755 130.036 70.1429 134.934C72.5035 131.23 80.0586 127.356 90.8971 128.27C89.3809 127.218 85.6159 126.925 80.4568 127.653C76.8813 128.158 73.6376 129.651 70.5163 131.485C72.5718 127.533 75.4633 124.513 79.6915 122.945C83.8625 121.397 88.0643 121.906 92.2663 122.953C92.2879 122.854 92.3093 122.755 92.3305 122.655L88.2769 121.129C89.7837 120.658 94.9134 122.392 98.222 124.679C101.17 126.718 103.977 128.96 106.882 131.139C104.197 126.911 100.903 123.218 97.1591 119.88C99.8736 121.469 102.417 123.333 104.749 125.444C107.132 127.549 109.441 129.738 111.229 131.382C110.802 130.624 109.937 129.156 109.137 127.652C107.339 124.275 104.728 121.611 101.986 118.997C100.903 117.965 100.204 116.401 99.6642 114.954C98.7337 112.46 98.7103 109.858 99.5968 106.933C99.7821 107.761 100.02 108.297 100.001 108.823C99.8464 112.972 101.816 116.219 104.364 119.214C108.797 124.423 114.424 128.093 120.283 131.451C121.593 132.213 122.949 132.892 124.342 133.487C120.778 130.668 117.223 127.839 113.648 125.034C110.032 122.197 107.006 118.846 104.772 114.78C105.391 115.482 106.009 116.185 106.628 116.887L106.79 116.773C106.249 115.663 105.694 114.56 105.169 113.443C104.184 111.354 103.632 109.223 103.973 106.85C104.579 102.634 107.279 100.18 111.553 100.121C115.431 100.067 118.965 101.381 122.476 102.794C123.285 103.118 124.064 103.517 125.001 103.65C123.661 102.732 122.371 101.73 120.97 100.918C118.913 99.7235 116.845 98.5029 114.658 97.5855C111.141 96.1088 107.524 95.2326 103.946 97.7201C104.197 95.2222 107.096 92.6827 109.5 93.0374C114.1 93.7164 118.73 94.3359 123.245 95.4124C127.241 96.3657 130.04 99.2 132.189 102.645C132.305 102.832 132.434 103.011 132.589 103.241C132.96 101.798 131.006 98.5707 127.587 95.0044L129.561 95.8433C128.624 94.6359 127.331 93.755 125.864 93.3262C123.141 92.4962 120.397 91.7233 117.637 91.0327C114.454 90.2363 111.539 89.0635 109.748 86.0933C109.339 85.4412 109.026 84.7343 108.816 83.9937C107.978 80.7636 108.703 79.1229 111.642 77.5033C112.752 76.8919 113.902 76.354 115.121 75.7385L114.381 75.3564L117.747 74.5523C117.744 74.4754 117.74 74.3985 117.737 74.3206L114.558 74.0144C114.557 73.9239 114.556 73.8332 114.554 73.7424L117.676 72.875C117.669 72.7685 117.662 72.662 117.655 72.5556C114.04 72.9957 110.538 72.7177 107.252 71.0782C103.929 69.4202 101.635 66.7655 100.075 63.3996L99.8145 63.5386C99.9173 64.3001 100.02 65.0613 100.16 66.1017C99.0063 65.1728 98.1354 64.3622 97.1542 63.7202C96.4961 63.283 95.7528 62.99 94.9734 62.8607C90.8147 62.2556 88.0476 59.9345 86.4241 56.1375C86.1529 55.5029 85.9344 54.8455 85.6914 54.1984C85.5863 54.2216 85.4809 54.2429 85.3755 54.2651C85.7461 55.8812 86.1142 57.4971 86.5501 59.4044C84.7526 57.3315 84.2338 55.1084 84.0274 52.7391C83.128 54.9812 83.8152 57.1109 84.6412 59.4705C83.7659 59.0959 83.0275 58.8413 82.3465 58.4782C77.9987 56.1602 73.6603 53.8268 69.8745 50.6103C69.6535 50.4227 69.2282 50.4771 68.8991 50.4143C68.6769 50.3937 68.4581 50.3453 68.248 50.2702C65.026 48.7215 61.7885 47.2027 58.6024 45.5831C57.3987 44.978 56.2687 44.2362 55.2347 43.3725C53.0018 41.4824 52.7474 39.5611 54.1631 36.6882C52.9781 36.7385 51.2884 38.1982 50.6836 40.1825C50.1768 41.8435 50.101 43.636 49.8687 45.1485C48.7881 42.8986 49.3343 38.5087 54.0948 34.8147C52.7692 34.2244 49.852 36.0312 47.8973 38.6535C47.9276 36.9998 49.326 35.5285 53.109 33.1685C51.6828 32.9266 50.2085 33.9202 45.3125 38.2172C47.6662 34.3796 50.0198 30.5421 52.3733 26.7047L52.1535 26.5657C50.1254 29.5746 48.0969 32.5834 46.0681 35.592L45.8455 35.4639C47.3801 32.7668 48.9145 30.0697 50.4487 27.3726C50.3813 27.3291 50.3137 27.2853 50.246 27.2419L48.6401 29.5966L48.4053 29.4576C50.2716 26.0855 52.1376 22.7133 54.0033 19.3411L53.7819 19.1949L49.8302 24.9635C49.7186 24.6839 49.6366 24.4791 49.5291 24.2124L46.3039 28.6211L46.0848 28.4821C46.8554 27.2572 47.6003 26.016 48.4011 24.8106C50.9113 21.03 53.2929 17.1521 56.0028 13.5195C59.2718 9.1373 62.9126 5.04882 67.472 1.91574C69.1801 0.692457 71.2301 0.0382491 73.3309 0.0459466C74.5162 0.0654067 75.8453 0.268579 76.8478 0.844738C80.4756 2.92975 84.0341 5.14473 87.526 7.44937C88.6214 8.17217 89.3857 9.37986 90.3852 10.2718C90.8441 10.6814 90.972 11.6453 92.0486 11.3064C92.3184 11.2214 92.8468 12.042 93.2899 12.4054C94.008 12.9943 94.7492 13.5548 95.4904 14.1163C95.9634 14.4752 96.4864 14.7749 96.9244 15.1718C97.809 15.9745 98.6505 16.8254 99.6845 17.523C99.6095 17.2005 99.534 16.8778 99.4418 16.483L100.114 16.3647C100.026 15.9178 99.9396 15.4713 99.8212 14.8634L100.876 15.3787C100.846 14.7891 100.822 14.313 100.786 13.618C100.996 13.9907 101.229 14.3501 101.483 14.6941C103.033 16.49 104.563 18.3058 106.197 20.0225C106.443 20.281 107.195 20.0584 107.813 20.0584C108.439 20.4006 109.272 21.2568 109.991 21.1685C111.646 20.9647 112.701 21.4963 113.683 22.7381C114.01 23.15 114.827 23.1528 115.392 23.4027C115.747 23.6039 116.082 23.8365 116.395 24.0977C117.034 22.4728 116.004 20.9674 116.133 19.3928C116.847 21.2654 116.828 23.4991 118.991 24.632L119.324 24.1306L120.569 24.7636C120.523 24.2076 120.484 23.7674 120.446 23.3272C120.527 23.2946 120.608 23.2617 120.689 23.2283C120.982 23.8436 121.276 24.4587 121.571 25.0735L121.766 25.0791C121.766 24.6283 121.788 24.1756 121.76 23.7278C121.691 23.2821 121.696 22.8282 121.774 22.3841L122.646 24.1174L123.186 22.9874L125.271 27.7528C125.422 27.5352 125.53 27.3779 125.711 27.1161C126.237 28.8407 126.727 30.4434 127.265 32.2078C127.847 31.291 126.678 30.0831 128.185 29.5158L128.933 31.4386C130.142 30.1862 130.226 28.625 130.124 27.0191C129.968 24.5546 129.793 22.0913 129.637 19.6268C129.611 19.2091 129.632 18.7899 129.699 18.3769C130.327 22.9725 130.955 27.5681 131.582 32.164L131.787 32.1718C131.831 31.2198 131.875 30.268 131.918 29.3163L132.121 29.288C132.237 30.1801 132.354 31.0724 132.47 31.965L132.692 31.955V28.5726L132.904 28.5344L133.475 31.6214L133.735 31.5996L133.925 30.0725L134.134 30.0479C134.396 31.568 134.658 33.0879 134.919 34.6078L135.1 34.6229V30.6382L135.391 30.6238L136.463 36.8615L136.542 36.8566V32.1074L136.778 32.1042V33.8737L136.995 33.8762C137.035 33.285 137.076 32.6939 137.116 32.1028L137.416 32.0836C137.467 33.1788 137.519 34.2742 137.57 35.3698L137.639 35.3679V22.3537L137.757 22.3431C138.022 26.5957 138.288 30.8484 138.553 35.1011L138.777 35.0967V29.4321L138.935 29.4203L140.867 39.7893C141.338 36.915 141.795 34.1322 142.251 31.3492L142.718 31.377V37.1796C142.812 37.1817 142.907 37.184 143.001 37.1858C143.248 34.7816 143.496 32.3772 143.745 29.9726L143.816 29.9638V35.5484L144.185 35.5623L144.356 32.1579C144.441 32.1558 144.525 32.1535 144.609 32.151L145.186 36.4007L145.367 36.4058C145.607 34.8085 145.847 33.211 146.088 31.6133L146.27 31.5871C146.363 32.3005 146.455 33.0137 146.548 33.7266L146.814 33.7479C147.098 32.3338 147.383 30.9198 147.667 29.5058L147.773 29.4924V32.277L148.049 32.2895C148.268 31.0269 148.488 29.7642 148.708 28.5013L148.96 28.4906L149.119 31.5459L149.313 31.573C149.384 30.7886 149.456 30.0041 149.527 29.2197L149.758 29.2134V32.0481L150.061 32.0783C150.441 30.2782 150.822 28.4781 151.202 26.6781C151.619 28.2661 151.048 30.1088 152.845 31.2095C153.361 30.9667 152.633 29.3721 153.906 29.8195C154.266 29.946 154.291 31.0274 154.499 31.7775C154.788 30.9042 155.093 30.015 155.374 29.1185C155.605 28.3822 155.464 27.5616 156.573 27.1935C157.044 27.0372 157.106 25.8186 157.485 25.1588C157.885 24.4638 158.495 23.8899 158.916 23.2035C159.273 22.6356 159.543 22.0176 159.718 21.3698C160.488 18.3176 161.205 15.2522 162.118 12.221C161.295 16.4613 160.471 20.7016 159.648 24.9417L160.069 25.0652L160.89 23.5461C161.113 23.8786 161.254 24.3046 161.531 24.4293C161.722 24.515 162.1 24.1828 162.464 24.0025C162.55 24.1415 162.696 24.3785 162.919 24.7395C163.269 24.1781 163.547 23.7324 163.797 23.3312L165.241 23.952C165.61 23.8858 165.974 23.7937 166.331 23.6766C166.69 23.5455 167.025 23.3558 167.322 23.115C168.721 21.8457 170.161 20.8518 172.245 21.0972C172.74 21.1556 173.346 20.2724 173.965 19.7704C174.856 20.6135 175.471 20.1846 176.219 19.2913C177.66 17.5705 179.262 15.9845 180.766 14.3756C180.788 14.4826 180.862 14.8546 180.956 15.3228L181.869 14.6811C181.77 15.3618 181.696 15.8654 181.618 16.4073H182.264L182.041 17.4637L182.222 17.5934C183.187 16.6464 184.125 15.6687 185.132 14.7671C185.549 14.3925 186.151 14.2284 186.603 13.8842C187.435 13.2918 188.22 12.6363 188.952 11.9233C193.256 7.45655 198.449 4.2586 203.847 1.33356C205.458 0.460633 207.018 -0.317543 208.971 0.130966C211.804 0.782186 214.159 2.24934 216.246 4.17126C220.852 8.41079 224.886 13.1181 228.134 18.5078C230.054 21.6963 232.242 24.7239 234.305 27.8274C234.528 28.1278 234.656 28.488 234.672 28.8618C233.375 27.1208 232.075 25.38 230.616 23.4229C230.701 23.927 230.747 24.1971 230.852 24.8161L226.853 18.9929L226.648 19.1088L232.884 30.4181C232.812 30.4607 232.74 30.5036 232.668 30.546C231.478 28.6448 230.288 26.7431 229.099 24.8409L228.918 24.9475C230.901 28.4134 232.884 31.8795 234.868 35.3457L234.646 35.4863L229.566 27.9831L229.283 28.1587L235.279 37.9119C232.92 35.9812 230.837 33.7143 227.679 33.0853C229.914 34.4088 232.047 35.8049 233.102 38.6861C231.958 37.5973 231.116 36.6222 230.104 35.8818C229.008 35.0362 227.67 34.5647 226.286 34.5365C230.187 37.5713 232.267 40.9972 230.706 45.7427C230.956 43.0461 230.795 40.4118 228.958 38.217C228.348 37.4877 227.495 36.9621 226.609 36.442C227.99 38.8147 227.95 40.9789 225.987 42.8877C225.18 43.7101 224.256 44.4089 223.245 44.9616C220.641 46.2902 217.952 47.4541 215.315 48.7206C214.216 49.2488 213.161 49.8711 211.957 50.5207C212.028 50.1963 212.076 49.9811 212.184 49.4916C208.449 52.9374 204.253 55.2539 199.82 57.7735C200.451 55.4552 200.828 53.4337 200.15 51.1596C199.94 52.4064 199.84 53.4629 199.576 54.4764C198.941 56.9115 197.769 58.9098 195.274 59.9621C192.069 61.3132 188.893 62.6186 185.355 62.9249C184.367 63.0104 183.431 63.9275 182.517 64.5329C181.922 64.9267 181.411 65.448 180.664 66.0781C180.75 65.0977 180.812 64.3818 180.874 63.666C177.01 70.8037 171.005 73.4424 163.201 72.572C163.182 72.673 163.163 72.7743 163.144 72.875L166.238 73.747C166.234 73.8383 166.23 73.93 166.226 74.0213L163.1 74.3042C163.088 74.3893 163.075 74.4742 163.063 74.559L166.116 75.2837L165.665 75.7375C166.944 76.3862 168.145 76.9781 169.331 77.5983C171.961 78.9718 172.864 80.6077 171.79 84.3192C170.71 88.0535 167.714 89.7521 164.229 90.7438C161.193 91.608 158.128 92.3706 155.098 93.2551C153.63 93.6426 152.337 94.5187 151.433 95.7391L152.85 95.1719C151.851 96.4051 150.692 97.6116 149.806 98.9926C148.934 100.349 148.339 101.884 147.623 103.34L147.923 103.494C148.738 102.379 149.484 101.204 150.381 100.16C153.571 96.4477 157.728 94.7223 162.534 94.2666C164.944 94.0311 167.34 93.6726 169.713 93.1926C173.072 92.5231 176.364 94.4853 176.814 97.7868C174.53 96.0198 172.037 95.8491 169.517 96.5054C167.683 96.9488 165.907 97.6002 164.221 98.447C161.356 99.9575 158.624 101.721 155.836 103.379C155.905 103.505 155.974 103.631 156.043 103.757C157.472 103.162 158.879 102.509 160.333 101.984C163.239 100.934 166.178 100.031 169.335 100.116C173.531 100.229 176.172 102.686 176.774 106.846C177.232 110.001 176.056 112.667 174.703 115.331C174.504 115.725 174.286 116.108 174.076 116.496L174.346 116.681C175 115.878 175.654 115.075 176.308 114.27C176.38 114.321 176.452 114.373 176.524 114.424C175.627 115.657 174.722 116.885 173.832 118.124C169.606 124.004 163.552 127.82 157.972 132.171C157.791 132.313 157.607 132.449 157.431 132.596C157.325 132.671 157.24 132.771 157.182 132.888C157.124 133.004 157.096 133.133 157.1 133.263C158.258 132.642 159.432 132.05 160.571 131.397C166.267 128.131 171.736 124.558 176.111 119.564C178.833 116.458 180.923 113.061 180.776 108.704C180.76 108.231 180.922 107.754 181.022 107.152C181.244 107.349 181.378 107.409 181.391 107.489C182.024 111.164 181.93 114.763 179.699 117.932C178.875 119.103 177.693 120.029 176.634 121.024C174.044 123.458 172.277 126.471 170.576 129.535C170.043 130.494 169.501 131.448 169.047 132.474C173.103 127.648 177.89 123.488 183.233 120.144C179.61 123.48 176.394 127.14 173.841 131.405C179.253 126.462 184.943 122.035 192.414 120.839C192.461 120.927 192.505 121.015 192.551 121.103L188.433 122.671C188.424 122.783 188.415 122.894 188.406 123.006C197.834 120.355 205.298 122.661 210.222 131.434C204.114 127.72 197.611 126.354 190.62 127.795C194.231 128.263 197.904 128.498 201.463 129.267C205.109 130.025 208.381 132.018 210.729 134.91C207.232 132.56 203.352 131.421 199.204 131.089C195.078 130.767 190.928 131.164 186.938 132.262C187.318 132.262 187.698 132.267 188.077 132.262C194.175 132.174 199.993 133.264 205.158 136.678C210.019 139.89 213.046 144.333 213.875 150.216C214.738 156.569 214.972 162.991 214.574 169.39C214.468 170.546 214.267 171.692 213.972 172.815C214.315 165.133 214.015 157.504 211.909 150.031C212.139 152.281 212.389 154.528 212.593 156.78C212.802 159.069 212.964 161.362 213.147 163.653L212.812 163.699C212.393 161.925 211.973 160.15 211.554 158.375L211.393 158.432C211.666 162.021 211.939 165.61 212.211 169.199L211.739 169.252C211.333 166.352 210.926 163.451 210.486 160.306L210.08 161.036L208.29 156.201L207.957 156.311C208.135 157.081 208.39 157.843 208.473 158.623C208.575 159.583 208.989 160.46 208.401 161.558C207.959 162.383 208.314 163.633 208.169 164.698C207.917 160.7 207.071 156.762 205.658 153.014C207.902 165.467 205.856 176.69 196.567 186.045C197.023 185.782 197.494 185.54 197.932 185.251C198.404 184.941 198.846 184.585 199.502 184.443C198.726 185.345 197.991 186.287 197.166 187.142C192.905 191.556 188.222 195.376 182.341 197.46C180.83 198.022 179.194 198.162 177.609 197.866C180.821 196.601 184.079 195.488 186.211 192.488C185.162 192.926 184.136 193.434 183.06 193.792C178.959 195.155 174.777 195.965 170.443 195.195C166.132 194.431 162.085 195.512 158.097 196.919C156.471 197.492 154.932 198.313 153.338 198.985C152.89 199.157 152.41 199.23 151.93 199.201C157.678 194.904 164.168 193.271 171.254 193.663C166.636 191.852 162.065 191.907 157.435 193.926L159.002 191.721C157.617 192.272 156.289 193.016 154.866 193.322C151.62 194.021 148.777 193.021 146.393 190.742C144.665 189.09 144.481 186.769 145.798 184.748C147.624 181.941 150.403 180.887 153.532 180.553C154.865 180.411 156.227 180.53 157.836 180.53C156.556 178.637 154.814 177.648 152.991 177.009C151.187 176.377 149.224 176.201 147.323 175.824C148.523 174.667 150.232 174.261 151.864 173.831C153.456 173.412 155.127 173.293 156.764 173.044C156.756 172.929 156.749 172.815 156.742 172.701L154.437 172.498C157.346 170.773 160.424 169.394 162.667 166.78C165.008 164.05 165.431 160.68 165.841 157.297L166.165 157.243C166.312 157.656 166.423 158.08 166.498 158.512C166.76 161.479 165.923 164.235 164.821 166.933C164.748 167.11 164.651 167.277 164.589 167.457C164.569 167.513 164.625 167.596 164.694 167.83C166.31 166.625 167.606 165.19 168.171 163.356C168.764 161.431 169.039 159.397 169.326 157.392C169.472 156.372 169.28 155.307 169.346 154.27C169.445 152.705 170.018 151.406 171.41 150.472C175.134 147.974 179.275 142.692 180.386 138.971C178.389 141.542 176.203 143.442 173.419 144.628C176.663 141.458 180.014 138.377 180.741 133.49C180.508 133.634 180.287 133.796 180.081 133.976C175.6 138.534 170.187 141.591 164.28 143.879C154.817 147.546 144.972 148.592 134.945 147.907C127.6 147.404 120.442 145.833 113.695 142.753C108.839 140.536 104.323 137.791 100.603 133.883C100.495 133.772 100.374 133.675 100.243 133.594C100.083 133.518 99.919 133.454 99.7506 133.403C100.737 138.369 104.1 141.497 107.585 144.602C106.151 144.526 104.439 143.235 100.684 139.459L100.392 139.631C101.396 141.272 102.331 142.96 103.42 144.543C105.102 146.94 107.203 149.013 109.621 150.663C111.142 151.727 111.457 153.335 111.498 155.049C111.538 156.783 111.47 158.53 111.657 160.249C111.982 163.214 113.463 165.604 115.702 167.539C115.776 167.604 115.905 167.606 116.182 167.689C114.943 164.28 113.673 160.975 114.692 157.351C115.484 160.607 115.7 164.04 118.06 166.735C120.321 169.318 123.319 170.766 126.349 172.191C126.331 172.296 126.312 172.4 126.293 172.505L123.988 172.677C123.965 172.771 123.943 172.865 123.92 172.959C124.376 173.094 124.841 173.197 125.312 173.265C127.626 173.408 129.894 173.975 132.004 174.936C132.586 175.213 133.13 175.566 133.62 175.985C129.398 175.814 125.903 177.277 123.058 180.483C123.602 180.483 124.146 180.5 124.69 180.48C127.727 180.367 130.619 180.815 133.126 182.7C134.443 183.663 135.39 185.049 135.809 186.626C136.258 188.303 135.167 190.413 133.272 191.678C129.724 194.047 126.131 194.243 122.482 191.91C122.256 191.758 121.982 191.694 121.712 191.731L123.56 194.171C118.836 191.801 114.134 191.865 109.368 193.695C116.471 193.231 122.977 194.86 128.732 199.301C128.262 199.178 127.755 199.129 127.326 198.92C123.353 196.982 119.256 195.41 114.811 195.056C113.239 194.96 111.661 195.03 110.103 195.264C105.873 195.83 101.808 195.157 97.8185 193.822C96.732 193.458 95.691 192.958 94.6076 192.511C94.9032 193.495 96.1663 194.649 98.3744 195.748C99.9085 196.515 101.52 197.122 103.096 197.798ZM116.781 82.1144C118.468 82.7193 120.169 83.2885 121.838 83.9365C126.232 85.6411 130.212 88.0139 133.466 91.4657C136.734 94.9338 138.802 99.0181 139.087 103.814C139.266 106.814 139.103 109.834 139.083 112.846C139.048 113.188 138.991 113.528 138.912 113.863C136.274 110.416 132.783 108.91 128.958 107.977C132.121 109.71 135.109 111.62 136.912 114.906C136.351 114.655 135.888 114.273 135.379 113.967C134.849 113.649 134.275 113.406 133.72 113.13C139.96 119.897 139.046 126.632 133.833 133.604C137.191 131.784 139.067 129 140.358 125.569C142.638 130.329 144.948 133.052 146.804 133.354C141.725 126.7 140.834 120.039 147.028 113.389C146.95 113.318 146.872 113.247 146.794 113.176L143.504 115.233C145.53 111.694 148.629 109.725 151.876 107.866C150.003 108.447 148.13 109.036 146.466 109.988C144.806 110.936 143.354 112.248 141.764 113.436C141.741 113.045 141.691 112.56 141.684 112.075C141.646 109.682 141.602 107.29 141.593 104.897C141.581 101.654 142.529 98.6553 144.095 95.8602C147.425 89.9165 152.77 86.4297 158.892 83.9451C160.542 83.2758 162.243 82.7327 163.921 82.1316C157.73 82.9355 151.923 84.8027 146.698 88.3468C149.442 83.8858 153.366 80.887 158.04 78.7671C152.461 79.9122 147.964 82.79 144.389 87.188C145.71 84.2194 147.893 82.1075 150.713 80.5984C150.662 80.5161 150.611 80.4338 150.56 80.3514L147.824 81.3972C147.772 81.2829 147.719 81.1686 147.666 81.0543L152.009 78.79L150.457 78.4589C150.457 78.3516 150.457 78.2443 150.457 78.1369C155.196 76.0419 160.081 75.5654 165.157 77.0156C160.989 74.7182 156.619 75.3374 152.186 75.9919L157.085 73.8555C157.061 73.7989 157.036 73.7426 157.012 73.6861L151.895 74.8261C151.869 74.7298 151.842 74.6334 151.816 74.537L156.983 71.5191L156.881 71.3412L152.71 72.8021C152.666 72.735 152.621 72.668 152.577 72.601L153.831 70.8475C151.992 71.8939 150.422 72.9584 148.716 73.7169C146.488 74.7064 144.119 75.052 142.042 73.3731C141.279 72.7571 140.867 71.7067 140.291 70.8479C140.203 70.9841 140.132 71.1304 140.079 71.2837C139.503 73.5805 137.804 74.3584 135.678 74.4733C133.808 74.5743 132.106 73.9338 130.52 73.0106C129.339 72.3227 128.216 71.5367 127.066 70.7942L126.952 70.8966L128.176 72.607L128.068 72.8011L123.9 71.3439C123.868 71.4046 123.836 71.4653 123.803 71.526C125.537 72.5414 127.272 73.5567 129.006 74.572C128.964 74.6614 128.922 74.751 128.88 74.8407L123.805 73.6968L123.742 73.896L128.648 76.0083C124.159 75.3108 119.744 74.7379 115.58 76.8333C118.075 76.6522 120.624 76.3162 123.171 76.3236C125.719 76.3311 128.138 77.1113 130.409 78.2256C130.388 78.3204 130.367 78.4154 130.347 78.5104L128.729 78.7756L133.061 81.0627L132.894 81.3851L130.24 80.3505C130.189 80.4418 130.139 80.5331 130.089 80.6243C132.99 82.1615 135.215 84.3211 136.422 87.0223C134.542 85.3942 132.583 83.424 130.354 81.8367C127.551 79.8415 123.786 78.5891 122.783 78.9176C128.983 82.2127 133.757 86.2643 134.057 88.2284C131.423 86.9287 128.701 85.4039 125.836 84.2205C122.949 83.0425 119.892 82.3316 116.781 82.1144ZM174.932 135.486L174.686 135.191L170.369 137.528L170.261 137.373L172.611 135.417C164.075 138.869 155.582 141.527 146.603 136.913C148.301 138.628 150.489 139.323 152.577 140.248C150.2 140.044 147.898 139.314 145.839 138.11C142.874 136.351 141.052 133.761 140.4 130.277C139.764 133.231 138.345 135.604 135.98 137.434C134.391 138.663 129.17 140.725 128.098 140.11C130.287 139.36 132.487 138.63 134.242 136.952C132.371 137.596 130.605 138.382 128.757 138.805C124.943 139.709 120.955 139.566 117.216 138.39C116.3 138.102 115.407 137.738 114.48 137.495C113.666 137.283 112.766 137.325 112.001 137.018C110.703 136.499 109.48 135.795 108.225 135.168L108.076 135.369L110.492 137.354L110.369 137.515L106.088 135.236C106.014 135.329 105.94 135.422 105.865 135.514C106.113 135.683 106.375 135.833 106.605 136.023C109.825 138.659 113.41 140.815 117.248 142.423C121.568 144.267 126.047 145.56 130.723 145.908C134.098 146.16 137.513 145.868 140.891 146.096C151.412 146.802 161.182 144.564 170.128 138.942C171.795 137.895 173.334 136.644 174.932 135.486ZM85.6412 151.485L85.2321 151.595C86.0351 154.413 86.8381 157.231 87.6411 160.048C85.6773 156.017 84.5984 151.741 84.0059 147.306C83.869 147.571 83.7887 147.861 83.7698 148.158C83.5151 153.094 83.9426 157.942 85.7519 162.589C87.8167 167.894 91.3342 171.988 96.1332 175.027C99.2312 176.981 102.632 178.408 106.196 179.25C108.874 179.893 111.627 180.22 114.347 180.686C110.958 179.446 107.523 178.465 104.231 177.13C100.927 175.8 97.9531 173.764 95.5168 171.165C97.8774 172.876 100.196 174.65 102.998 175.628C93.4474 170.283 88.6656 161.52 85.6412 151.485ZM187.858 168.502C182.303 175.285 174.868 178.7 166.442 180.337C166.988 180.435 167.543 180.46 168.095 180.411C172.349 179.872 176.517 178.987 180.461 177.238C187.172 174.262 192.235 169.626 194.965 162.695C196.924 157.722 197.348 152.521 197.06 147.234C197.004 147.004 196.925 146.779 196.825 146.565C196.504 148.42 196.279 150.014 195.942 151.584C195.603 153.164 195.226 154.744 194.732 156.28C194.258 157.755 193.612 159.174 193.041 160.618L192.962 160.57L195.643 151.152L195.285 151.024C192.231 161.232 187.484 170.232 177.718 175.659C181.69 174.068 184.925 171.493 187.858 168.502ZM100.028 56.8116L100.156 56.6666C101.349 57.6938 102.565 58.6944 103.726 59.7559C104.856 60.7889 105.93 61.8845 107.028 62.9529C102.651 57.1626 97.1065 52.7132 90.987 48.9421C84.9082 45.1789 78.3997 42.1589 71.6013 39.9469L76.0324 41.894C73.3937 41.2393 70.8381 40.3745 68.2306 39.7145C65.6363 39.0573 62.989 38.6053 60.3651 38.0636L60.2741 38.4484C78.2982 42.4287 93.6651 51.183 106.624 64.2637L106.832 64.0415L100.028 56.8116ZM174.155 63.7617L174.416 64.0093C187.32 51.0208 202.642 42.3798 220.509 38.2402C217.994 38.5452 215.498 38.9982 213.036 39.5968C210.581 40.2047 208.172 40.9868 205.741 41.6932C205.718 41.6258 205.692 41.5583 205.668 41.4907L207.28 40.7139C205.541 40.6213 196.872 44.8024 189.087 49.4094C183.071 52.9692 175.4 59.7983 174.01 62.6087L180.665 56.541L180.847 56.7305C178.616 59.0744 176.386 61.4183 174.155 63.7621V63.7617ZM84.4837 174.721C82.2865 171.459 81.2274 167.753 80.5423 163.909C80.0327 170.633 81.6988 176.601 86.4306 181.58C90.6317 186 98.8398 189.427 102.022 189.407C93.311 184.26 85.5159 178.16 82.5438 167.653L82.1292 167.874C82.9141 170.156 83.6989 172.439 84.4837 174.721V174.721ZM200.128 163.806C199.858 165.158 199.654 166.528 199.298 167.857C198.953 169.155 198.518 170.428 197.996 171.666C197.482 172.879 196.809 174.024 196.206 175.199L195.937 175.064C197.188 172.563 198.164 169.978 198.515 167.199C198 168.435 197.607 169.713 197.109 170.949C194.067 178.502 188.001 183.302 181.651 187.819C180.737 188.468 179.631 188.848 178.614 189.352C190.305 187.387 201.76 178.787 200.128 163.806V163.806ZM134.198 64.1289C133.985 63.5199 133.771 62.9109 133.558 62.3019C133.532 62.2292 133.515 62.1532 133.483 62.0835C130.595 55.77 126.079 50.9275 120.185 47.3176C115.612 44.517 110.666 42.6236 105.473 41.4101C102.526 40.7218 99.5129 40.3157 96.5297 39.7824C96.4927 39.912 96.4557 40.0414 96.4188 40.1707C103.889 41.983 111.039 44.5427 117.623 48.5733C124.238 52.6226 129.822 57.7022 134.198 64.1289ZM184.163 40.0664C177.531 40.6333 171.165 42.1169 165.125 44.9083C158.211 48.1053 152.511 52.6692 148.69 59.3563C147.868 60.7949 147.267 62.3601 146.565 63.8673C146.671 63.9334 146.777 63.9997 146.883 64.0661C151.071 57.6042 156.587 52.586 163.122 48.5906C169.68 44.5812 176.794 42.0293 184.163 40.0664ZM94.2034 134.518C91.4239 132.754 82.2429 134.676 78.7675 137.295C73.7823 141.052 71.3048 148.723 71.7382 151.433C75.4526 140.895 82.9695 135.359 94.2037 134.518L94.2034 134.518ZM209.24 151.657C208.395 145.172 206.124 139.53 200.141 136.167C196.384 134.055 188.537 133.116 186.527 134.51C197.875 135.367 205.482 140.98 209.24 151.657L209.24 151.657ZM93.9368 149.041C94.9979 150.518 95.987 152.053 97.1405 153.454C98.311 154.874 99.644 156.16 100.906 157.505C97.0004 151.891 92.8199 146.486 92.6045 139.178C92.3762 139.732 92.2096 140.309 92.1077 140.899C92.0032 141.423 92.0532 142.034 91.7952 142.461C91.085 143.641 90.8964 144.917 91.325 146.132C91.9453 147.892 92.6406 149.671 93.6181 151.248C95.6375 154.508 98.4342 157.116 101.277 159.655C101.993 160.295 102.742 160.9 103.49 161.503C104.206 162.08 104.94 162.634 105.666 163.198C101.216 158.906 96.734 154.683 93.9371 149.042L93.9368 149.041ZM186.352 150.062C183.793 154.545 180.283 158.224 176.334 161.828C176.73 161.809 176.87 161.846 176.935 161.793C181.099 158.355 185.115 154.766 187.937 150.079C189.082 148.18 189.973 146.116 189.52 143.83C189.206 142.249 188.604 140.724 188.099 139.07C187.97 146.211 183.981 151.542 180.065 156.905L180.421 157.151L186.352 150.062ZM100.951 45.5379C113.858 49.1925 124.174 57.0002 133.705 66.0656C125.153 55.4413 114.429 48.2876 100.951 45.5379ZM146.961 66.1967C156.246 57.2914 166.308 49.6253 178.825 45.7791C165.71 48.6896 155.268 55.7872 146.961 66.1967ZM190.744 44.6629C177.747 47.0643 166.955 53.3252 158.369 63.4457C167.457 54.2366 178.659 48.709 190.744 44.6629ZM90.0209 44.6534C101.644 48.5427 112.461 53.8523 121.452 62.4117C113.026 52.8617 102.523 46.9831 90.0209 44.6534ZM123.254 130.134C123.33 130.035 123.407 129.935 123.483 129.836C115.231 124.348 108.424 117.705 105.76 107.73C105.566 111.708 106.903 115.176 109.052 118.355C111.255 121.613 114.133 124.225 117.347 126.448C119.253 127.768 121.281 128.911 123.254 130.134ZM175.047 107.408C172.541 117.531 165.649 124.186 157.505 129.896C158.977 129.226 160.398 128.451 161.758 127.577C166.93 124.167 171.491 120.176 173.898 114.248C174.812 112.09 175.206 109.746 175.047 107.408V107.408ZM187.434 47.1429C177.277 49.1506 163.178 58.8253 161.071 65.2432C168.198 56.6124 177.647 51.6172 187.434 47.1432V47.1429ZM119.792 65.202C113.497 55.5168 104.309 50.0508 93.6593 47.0658C98.1762 49.5349 102.964 51.9512 107.544 54.7127C112.199 57.4803 116.342 61.0285 119.792 65.202ZM145.287 124.449C146.862 114.961 153.209 109.695 161.31 105.948C150.384 108.608 143.944 116.885 145.287 124.449ZM119.399 105.957C127.577 109.647 133.886 114.985 135.603 124.41C136.424 115.511 129.258 108.289 119.399 105.957ZM106.219 65.7438C99.354 57.1401 80.968 44.6388 74.2011 43.9596C80.1578 46.5737 85.8463 49.7607 91.1864 53.4756C96.5135 57.1904 101.462 61.3586 106.22 65.7438H106.219ZM174.694 65.3111C179.372 61.5687 184.145 57.5367 189.145 53.8099C194.141 50.0863 199.603 47.0772 205.223 44.3847C193.347 49.044 183.005 55.9227 174.696 65.3104L174.694 65.3111ZM142.984 106.336C144.675 97.1247 150.136 90.9037 158.35 86.8363C149.642 88.8588 142.867 96.8404 142.986 106.336H142.984ZM137.729 106.151C138.613 98.0773 129.433 86.833 122.144 86.7492C131.715 91.3962 136.001 97.9756 137.731 106.15L137.729 106.151ZM135.507 106.541C137.095 102.109 130.974 91.9666 126.251 90.9836C130.342 95.5623 134.138 100.223 135.508 106.54L135.507 106.541ZM145.26 106.749C146.513 100.222 150.493 95.5686 154.45 90.9032C148.433 94.1887 144.157 100.979 145.261 106.749L145.26 106.749ZM161.063 177.878C164.894 178.221 169.285 174.97 168.394 172.145C167.406 173.824 165.84 174.158 164.149 174.334C163.31 174.443 162.491 174.674 161.719 175.02C161.117 175.275 160.402 175.601 160.7 176.539C160.836 176.964 160.935 177.401 161.063 177.878ZM107.065 46.3224C116.156 49.4853 124.016 54.58 130.81 61.3697C124.632 53.6086 116.749 48.5376 107.065 46.3224ZM112.607 171.491C111.939 174.975 116.269 177.461 120.217 177.453C120.217 177.076 120.092 176.638 120.242 176.336C120.604 175.603 120.356 175.132 119.736 174.807C119.214 174.569 118.68 174.359 118.135 174.18C116.28 173.461 113.869 174.081 112.607 171.491ZM149.941 61.3952C156.752 54.5635 164.655 49.4814 173.77 46.2987C164.028 48.4989 156.135 53.6218 149.941 61.3952ZM160.683 44.712C152.465 47.9151 146.927 57.2156 145.972 63.1992C149.144 55.4255 153.435 48.8823 160.683 44.7125V44.712ZM145.634 60.8723C146.975 56.8586 148.878 53.1577 151.564 49.8857C154.229 46.6814 157.458 43.9927 161.092 41.9529C153 44.9145 146.694 53.4179 145.634 60.8728V60.8723ZM134.974 60.387C135.098 54.3525 125.893 43.3362 119.575 41.9374C127.082 46.1088 132.215 52.2588 134.974 60.3874V60.387ZM134.537 62.2994C133.591 55.6605 125.153 45.5303 119.773 44.6571C127.079 48.7164 131.37 55.0354 134.537 62.2998V62.2994ZM115.366 95.184C117.98 96.4378 120.887 97.5827 123.528 99.1687C126.192 100.767 128.595 102.804 130.879 104.478C129.637 100.899 119.82 94.9639 115.366 95.184ZM149.683 104.949C154.239 100.364 159.647 97.2081 166.064 95.235C160.962 95.2484 152.529 99.6614 149.683 104.949ZM99.1467 164.377C99.1573 165.624 99.4075 166.902 100.675 167.775C101.251 168.202 101.933 168.464 102.646 168.532C103.36 168.599 104.079 168.47 104.724 168.159C104.96 168.053 105.287 167.649 105.235 167.505C105.089 167.213 104.844 166.981 104.544 166.852C102.799 166.028 101.037 165.239 99.1467 164.377ZM189.501 151.354L186.411 156.9C187.483 158.113 187.735 158.171 188.741 157.366C190.143 156.245 190.634 153.285 189.501 151.354ZM181.447 164.252C180.168 164.985 178.961 165.713 177.717 166.371C177.251 166.617 176.681 166.658 176.194 166.872C175.949 166.98 175.638 167.257 175.621 167.477C175.605 167.703 175.859 168.034 176.085 168.178C177.025 168.778 179.132 168.544 180.127 167.778C181.296 166.877 181.788 165.493 181.447 164.252ZM94.3614 156.883C93.3235 155.034 92.3177 153.243 91.3118 151.451C90.2926 153.263 90.4587 154.96 91.3238 156.502C92.2781 158.204 93.1549 158.206 94.3614 156.883ZM70.1374 148.762C71.4505 143.617 74.3234 139.581 78.6959 136.591C73.9758 138.326 69.7413 143.782 70.1374 148.762ZM210.733 149.098C210.997 144.076 206.928 138.22 202.107 136.599C206.552 139.674 209.439 143.82 210.733 149.098ZM163.22 187.705C165.936 188.391 168.763 187.03 169.14 184.514C167.878 186.073 166.349 185.554 164.941 185.653C163.244 185.771 163.035 186.003 163.22 187.705ZM111.712 185.199C112.111 187.124 115.239 188.501 117.578 187.654C117.899 186.494 117.594 185.75 116.293 185.694C115.948 185.679 115.601 185.672 115.258 185.632C114.083 185.497 112.91 185.347 111.712 185.199ZM90.7382 174.838C90.558 176.217 91.4637 177.682 92.6052 178.131C93.6955 178.56 94.1527 178.301 94.3957 177.208L90.7382 174.838ZM100.128 181.152C99.9773 182.161 100.65 182.808 101.513 183.281C102.362 183.747 104.012 183.565 104.474 183.026C104.89 182.542 104.684 182.273 104.141 182.139L100.128 181.152ZM175.891 182.487C176.777 183.65 177.809 183.681 178.876 183.413C180.064 183.115 180.57 182.363 180.644 181.069L175.891 182.487ZM189.887 174.587C189.313 174.95 188.911 175.194 188.52 175.454C187.982 175.813 187.429 176.155 186.93 176.562C186.634 176.803 186.205 177.173 186.227 177.455C186.28 178.119 186.832 178.238 187.442 178.123C188.709 177.885 189.905 176.336 189.887 174.588V174.587Z" fill="white" fill-opacity="0.14"/>
<path fill-rule="evenodd" clip-rule="evenodd" d="M214.333 264.526L206.221 242.763L205.955 242.842C207.242 248.933 208.53 255.024 209.817 261.115L209.571 261.171C208.435 256.723 207.299 252.274 206.163 247.825L205.94 247.866C207.071 256.12 208.201 264.375 209.332 272.631L209.046 272.684C207.397 264.019 205.748 255.353 204.098 246.686L203.714 246.69C200.364 257.471 199.212 268.814 200.327 280.048C199.608 277.024 198.889 274.001 198.17 270.978L197.86 271.032C198.664 276.057 199.469 281.081 200.274 286.106L200.081 286.142C199.306 282.416 198.531 278.69 197.756 274.964L197.498 274.99C198.337 282.767 199.176 290.545 200.014 298.323L199.679 298.364C198.397 291.037 197.115 283.709 195.832 276.383C195.735 276.393 195.637 276.403 195.539 276.414C196.081 282.492 196.623 288.57 197.165 294.648L196.877 294.677C196.235 289.225 195.593 283.772 194.951 278.319L194.667 278.325C194.795 287.628 194.923 296.931 195.052 306.234L194.781 306.24C194.241 297.124 193.7 288.007 193.16 278.89L192.887 278.713C192.362 279.226 191.793 279.701 191.319 280.257C186.308 286.117 184.624 292.959 185.407 300.51C186 306.227 187.985 311.497 190.619 316.555C190.68 316.713 190.726 316.876 190.758 317.042C188.176 315.053 181.993 306.489 179.364 297.871C179.594 300.259 179.823 302.647 180.051 305.035L179.762 305.063L179.595 303.9L179.325 303.916C179.538 305.779 179.75 307.643 179.963 309.506L179.778 309.532C178.516 303.199 177.253 296.865 175.991 290.532C175.916 290.542 175.841 290.553 175.766 290.563C176.3 295.374 176.834 300.185 177.368 304.996L177.04 305.037C176.411 300.431 175.781 295.824 175.153 291.217C175.049 291.169 174.946 291.122 174.843 291.074C174.414 291.761 174.021 292.469 173.664 293.197C170.501 300.494 170.441 307.836 173.29 315.255C174.497 318.337 176.088 321.254 178.025 323.937C178.151 324.118 178.213 324.337 178.2 324.558C170.685 316.643 166.918 307.196 166.716 296.293C165.771 309.044 170.44 319.671 179.02 328.826C178.022 328.949 177.549 328.766 175.604 327.577C168.048 322.959 162.527 316.581 159.04 308.441C158.955 308.227 158.856 308.018 158.746 307.816C158.652 307.654 158.52 307.512 158.193 307.081C159.317 311.867 160.365 316.326 161.413 320.785L161.084 320.879L153.681 297.627L153.365 297.703L156.734 313.785L156.426 313.858C154.599 307.023 152.773 300.187 150.946 293.352L150.614 293.392V308.023L150.214 308.025V296.372L149.811 296.355C148.966 304.32 148.12 312.285 147.274 320.25L147.024 320.236L148.24 301.207L147.965 301.176C146.953 308.437 145.942 315.697 144.93 322.957L144.638 322.931C145.157 315.734 145.676 308.537 146.195 301.34L145.965 301.32C145.206 307.505 144.447 313.69 143.689 319.875L143.432 319.859C143.877 313.954 144.322 308.049 144.767 302.144L144.461 302.099C143.155 309.357 141.849 316.614 140.543 323.871L140.225 323.888C138.881 316.409 137.538 308.929 136.194 301.45C136.097 301.463 136.001 301.476 135.904 301.489C136.427 307.938 136.95 314.388 137.473 320.837L137.212 320.865L134.939 302.348L134.643 302.371C135.143 309.306 135.643 316.24 136.143 323.175L135.884 323.207C134.852 315.867 133.821 308.528 132.789 301.188L132.564 301.22L133.804 321.029L133.615 321.046C132.733 312.898 131.852 304.749 130.969 296.6L130.781 296.594C130.655 299.571 130.529 302.549 130.404 305.526L130.163 305.52V293.462C130.047 293.44 129.93 293.417 129.814 293.394C127.949 300.363 126.085 307.332 124.22 314.301L123.942 314.238C125.139 308.534 126.336 302.83 127.532 297.126L127.269 297.061C124.672 305.215 122.074 313.369 119.477 321.522L119.217 321.452C120.289 316.821 121.361 312.19 122.433 307.56C118.11 317.185 111.601 324.615 101.874 329C110.3 319.801 114.819 309.194 114.089 296.613C113.948 303.216 112.275 309.696 109.202 315.542C107.436 318.924 105.15 322.008 102.427 324.68C105.845 319.709 108.479 314.411 109.288 308.37C110.128 302.436 108.994 296.391 106.06 291.165H105.65L103.524 306.355L103.261 306.329C103.821 301.249 104.38 296.168 104.94 291.088L104.669 291.049C103.492 296.988 102.315 302.928 101.138 308.867L100.899 308.84C101.043 307.493 101.187 306.146 101.332 304.798L101.006 304.762C100.946 305.212 100.886 305.663 100.825 306.114L100.614 306.085C100.865 303.467 101.116 300.848 101.367 298.23C98.9752 305.264 95.08 311.692 89.9522 317.067C90.3691 316.17 90.774 315.266 91.2074 314.377C93.6472 309.372 95.2746 304.133 95.5109 298.544C95.8192 291.257 93.7695 284.774 88.6592 279.411C88.3298 279.121 87.9833 278.85 87.6217 278.601C87.0927 287.559 86.5812 296.222 86.0698 304.886L85.7179 304.876L86.1372 278.069L85.8824 278.046L84.0319 293.292L83.7523 293.262C84.271 287.378 84.7896 281.494 85.308 275.611L85.0844 275.581L80.9192 299.295L80.6487 299.268C81.5358 291.055 82.4231 282.842 83.3106 274.628L83.0743 274.586L80.9014 285.277L80.6436 285.239C81.4362 280.237 82.2288 275.236 83.0213 270.235L82.7628 270.183C82.0287 273.334 81.2949 276.487 80.4979 279.91C80.5878 275.936 80.8571 272.242 80.7022 268.564C80.5322 264.788 80.1409 261.024 79.5301 257.293C78.9411 253.638 77.9782 250.042 77.1779 246.422L76.6957 246.445C75.067 253.221 73.4382 259.998 71.8094 266.774L71.5337 266.717C72.5545 260.757 73.5752 254.797 74.5959 248.837L74.3798 248.795C73.3739 252.692 72.3678 256.59 71.3614 260.487L71.0834 260.428C72.3097 254.669 73.536 248.91 74.7622 243.15L74.4398 243.046C71.8301 250.049 69.2199 257.052 66.6092 264.055L66.3248 263.988C68.3074 256.372 69.7909 248.671 70.3045 240.743L66.2463 249.143L65.932 249.021C67.4844 243.778 69.0368 238.536 70.5894 233.293L70.3654 233.202C69.1079 235.888 67.8505 238.573 66.593 241.259C66.5004 241.226 66.4083 241.193 66.3167 241.16C67.4295 237.824 68.5421 234.487 69.6545 231.15L69.3624 231.04C68.3522 233.475 67.342 235.909 66.3317 238.344L66.077 238.246C67.2204 234.208 68.3638 230.171 69.507 226.133L69.2522 226.055C68.2418 229.065 67.2312 232.075 66.2203 235.085L65.9192 235.02C66.5817 231.82 67.2443 228.62 67.9071 225.42C65.9475 229.033 63.9462 232.552 61.2567 235.66C67.5309 225.063 70.5282 213.868 67.7392 201.556C67.7547 211.111 66.9979 220.464 61.1015 228.499L60.8115 228.412C61.3026 227.302 61.9407 226.231 62.2548 225.073C63.0085 222.293 63.7796 219.497 64.2385 216.659C65.3228 209.953 65.0601 203.187 64.6985 196.442C64.5047 192.826 64.0006 189.227 63.6511 185.618C63.6025 185.116 63.6515 184.609 63.7954 184.125C64.2574 185.603 64.7198 187.08 65.1824 188.558L65.4191 188.508C64.6555 184.454 63.8919 180.399 63.1283 176.344L63.3384 176.296C64.44 179.31 65.562 182.316 66.6394 185.338C68.7968 191.389 70.8692 197.47 73.0975 203.494C74.3251 206.81 75.7902 210.038 77.1636 213.299C77.4042 213.872 77.7263 214.406 78.12 214.886C73.8913 201.875 71.0784 188.608 70.3302 174.947L70.7583 174.85C71.3621 177.56 72.0924 180.247 72.5418 182.983C73.3805 188.077 73.8804 193.231 74.8398 198.3C76.4742 206.858 79.0669 215.206 82.5689 223.184C83.3372 224.945 84.0664 226.748 85.062 228.38C86.0459 229.993 87.3438 231.415 88.7025 233.177C87.8019 232.672 87.1506 232.307 86.502 231.942C86.4423 232.017 86.382 232.091 86.322 232.165L87.0864 233.178C87.052 233.24 87.0174 233.302 86.9826 233.365L83.1538 231.37C83.6986 232.486 85.6677 232.821 84.3684 234.364C84.547 234.611 84.7467 234.886 84.9959 235.23L84.2714 235.544L87.2893 237.941C87.2515 237.993 87.2139 238.046 87.1765 238.099L83.9119 236.233C83.9881 237.516 85.8308 237.963 84.7791 239.234L83.4239 238.447L83.308 238.614C84.5382 239.554 85.8361 240.418 86.9831 241.45C88.7785 243.065 90.4852 244.781 92.2025 246.481C92.9713 247.242 93.2279 248.199 93.3375 249.292C93.6314 252.248 94.5257 255.032 96.3487 257.425C98.3676 260.073 101.058 261.687 104.33 262.323C104.741 262.389 105.142 262.503 105.526 262.663C102.687 263.04 100.277 261.797 97.7431 260.757C98.3277 261.162 98.8607 261.705 99.5065 261.944C101.195 262.57 102.931 263.071 104.653 263.604C105.522 263.873 106.398 264.123 107.28 264.344C107.943 264.548 108.627 264.681 109.32 264.739C114.398 264.878 119.341 264.399 123.811 261.622C124.979 260.939 126.237 260.424 127.549 260.093C127.269 260.552 126.989 261.01 126.582 261.677C135.894 257.963 144.983 257.931 154.264 261.738L152.888 259.61C154.852 260.653 156.476 261.67 158.221 262.397C160.269 263.252 162.376 264.142 164.541 264.49C166.89 264.869 169.391 264.977 171.726 264.596C174.656 264.118 177.499 263.07 180.348 262.17C181.191 261.903 181.93 261.306 182.61 260.66L178.109 262.502C178.061 262.396 178.014 262.291 177.966 262.185C180.022 261.378 181.974 260.437 183.507 258.773C185.893 256.183 186.915 253.033 187.224 249.648C187.354 248.234 187.853 247.097 188.791 246.182C191.149 243.881 193.589 241.663 196.074 239.34C196.066 239.31 195.976 238.979 195.856 238.535L195.044 238.77C195.828 237.947 196.461 237.284 197.094 236.62L196.883 236.293L194.514 237.514L194.352 237.261L197.26 234.957C197.231 234.912 197.202 234.868 197.172 234.823L194.886 236.093C195.048 235 197.353 235.024 196.021 233.465L197.476 231.646L197.404 231.491L193.202 233.685L193.098 233.555C193.57 233.131 194.043 232.706 194.515 232.281L194.274 231.944L192.194 233.154L192.038 233.033C192.739 232.229 193.565 231.502 194.118 230.606C195.421 228.49 196.811 226.386 197.775 224.112C199.499 220.041 201.126 215.909 202.442 211.692C203.93 206.994 205.174 202.221 206.169 197.393C207.097 192.791 207.455 188.077 208.188 183.431C208.644 180.642 209.293 177.888 210.13 175.189C209.698 188.981 206.733 202.282 202.366 215.312L202.646 215.414C203.751 212.885 204.885 210.368 205.955 207.823C207.041 205.24 208.107 202.647 209.105 200.028C210.106 197.401 211.038 194.746 211.951 192.086C212.861 189.435 213.677 186.752 214.594 184.104C215.508 181.465 216.496 178.851 217.634 176.272C216.895 180.252 216.156 184.233 215.416 188.214L215.666 188.279C216.094 186.914 216.523 185.549 216.952 184.184L217.197 184.226C217.099 185.415 217.039 186.609 216.896 187.794C216.007 195.202 215.553 202.636 215.906 210.09C216.129 214.787 216.552 219.489 218.089 223.987C218.609 225.508 219.308 226.967 219.906 228.409C218.128 227.408 214.926 220.18 214.173 215.829C213.396 211.203 213.001 206.521 212.991 201.83C212.055 205.713 211.612 209.619 212.037 213.607C212.463 217.606 213.101 221.571 214.666 225.29C216.212 228.963 217.976 232.545 219.712 236.316C218.515 234.559 217.319 232.933 216.265 231.22C215.181 229.457 214.236 227.609 212.961 225.846C213.625 229.052 214.288 232.258 214.951 235.465L214.7 235.53C213.709 232.572 212.717 229.614 211.726 226.657L211.432 226.741L214.668 238.157C214.576 238.187 214.483 238.217 214.39 238.247C213.365 235.773 212.34 233.299 211.314 230.825L211.027 230.931C212.115 234.171 213.204 237.411 214.293 240.651C214.183 240.695 214.073 240.739 213.963 240.783C212.802 238.306 211.642 235.83 210.481 233.354L210.217 233.445L214.942 249.353L214.68 249.462C213.298 246.602 211.916 243.742 210.535 240.882L210.106 240.998C210.705 244.936 211.202 248.894 211.931 252.807C212.661 256.721 213.622 260.591 214.481 264.483C214.43 264.495 214.381 264.51 214.333 264.526ZM143.06 275.553C142.972 275.533 142.885 275.513 142.798 275.492C143.289 271.673 143.78 267.853 144.272 264.032L143.936 263.986L141.304 272.578V266.001C141.085 266.966 140.881 267.863 140.677 268.76L140.4 268.735C140.278 267.979 140.156 267.223 140.033 266.468L139.947 266.489V272.456L139.829 272.504C139.351 270.917 138.872 269.331 138.372 267.674C138.28 268.035 138.199 268.342 138.074 268.825C137.565 266.947 137.111 265.272 136.658 263.598L136.461 263.652C136.957 267.513 137.452 271.374 137.947 275.235L137.663 275.258C137.176 273.662 136.688 272.066 136.201 270.47L135.928 270.537C136.14 271.52 136.352 272.504 136.565 273.487C135.743 272.087 135.171 270.587 134.424 269.178C133.664 267.744 132.733 266.4 131.876 265.018L131.575 265.191C131.709 265.489 131.856 265.782 131.976 266.086C133.034 268.764 134.264 271.389 135.107 274.134C137.064 280.503 137.944 287.075 138.324 293.717C138.506 296.905 138.155 300.146 139.327 303.04C139.424 301.809 139.537 300.371 139.65 298.934L140.052 298.941V308.648L140.63 308.644V299.414L140.961 299.399C141.1 300.239 141.238 301.079 141.392 302.019C142.495 301.514 142.198 300.637 142.212 299.957C142.355 293.081 142.756 286.222 144.335 279.51C145.144 276.072 146.285 272.709 147.369 269.342C147.833 267.905 148.534 266.545 149.127 265.151L148.864 265.004C148.06 266.339 147.201 267.646 146.465 269.019C145.729 270.391 145.11 271.836 144.44 273.248L144.259 273.192C144.479 272.175 144.699 271.158 144.919 270.141L144.705 270.09L143.06 275.553ZM114.94 318.262C123.236 308.442 125.236 293.731 122.491 282.38C123.362 288.603 122.656 294.719 121.313 300.785C119.96 306.888 117.675 312.656 114.94 318.262V318.262ZM158.408 281.896C156.995 285.735 156.87 296.59 157.805 300.98C159.696 309.848 164.083 316.893 165.806 317.987C160.1 306.639 156.899 294.902 158.408 281.895V281.896ZM106.215 281.773C95.585 274.76 88.927 265.132 86.8024 252.183C86.7462 262.259 92.2608 276.209 106.215 281.773V281.773ZM193.828 253.516C191.535 265.413 185.131 274.554 174.887 281.466C183.712 280.039 194.983 263.196 193.828 253.516V253.516ZM207.264 238.932C206.121 225.827 206.778 212.909 210.825 200.299C205.775 212.823 204.219 225.675 207.264 238.932V238.932ZM70.1268 200.749C73.8732 213.158 74.7863 225.825 73.5436 238.692C76.4385 225.681 75.0265 213.057 70.1268 200.749ZM184.612 277.424C189.154 273.771 192.302 269.161 194.24 263.719C196.133 258.394 196.842 252.719 196.318 247.092C196.049 252.657 195.095 258.085 193.12 263.3C191.159 268.483 188.277 273.268 184.612 277.424ZM84.4579 246.539C83.8626 252.268 84.5463 258.059 86.4596 263.492C88.3662 268.998 91.5055 273.646 96.0466 277.341C88.3555 268.515 84.7977 258.154 84.4579 246.539ZM184.552 305.945C183.338 302.081 182.443 298.171 182.393 294.084C182.344 290.007 182.814 286.033 184.555 281.943C179.708 286.163 179.832 299.307 184.552 305.945ZM96.628 282.331C97.8693 286.113 98.5626 289.99 98.463 293.963C98.3632 297.924 97.5518 301.785 96.4321 305.593C98.3671 302.144 99.5989 298.479 99.9065 294.53C100.275 290.205 99.1152 285.888 96.628 282.331ZM98.0004 267.924C98.0931 268.109 98.1977 268.287 98.3136 268.457C98.4349 268.607 98.5735 268.742 98.7266 268.86C100.95 270.389 103.338 271.416 106.092 271.562C110.007 271.771 113.521 270.516 116.887 268.731C118.203 268.033 119.41 267.127 120.667 266.315C113.428 270.553 106.048 272.072 98.0004 267.924ZM182.636 267.972C175.12 271.898 168.057 270.637 161.147 266.811C167.593 272.4 179.358 273.105 182.635 267.972H182.636ZM152.167 264.583C154.677 271.432 162.252 275.455 167.826 275.38C162.457 273.888 157.911 272.09 152.167 264.583ZM128.329 264.793C124.477 270.315 119.489 273.789 113.188 275.344C118.994 275.594 127.684 269.647 128.329 264.793ZM157.19 264.541C159.3 268.886 165.994 272.566 171.097 272.152C165.653 270.832 161.007 268.452 157.191 264.541H157.19ZM123.495 264.792C119.67 268.471 115.121 270.813 110.03 272.177C115.782 272.026 120.21 269.445 123.495 264.792H123.495ZM127.354 263.703C126.136 264.865 124.992 266.121 123.677 267.161C122.34 268.191 120.924 269.116 119.443 269.926C118.022 270.724 116.503 271.349 115.027 272.05C120.566 271.354 124.63 268.468 127.355 263.704L127.354 263.703ZM165.842 272.056C161.111 270.272 156.919 267.684 153.572 263.841C155.271 267.819 160.789 271.838 165.842 272.057L165.842 272.056Z" fill="white" fill-opacity="0.14"/>
<path fill-rule="evenodd" clip-rule="evenodd" d="M8.56657 106.573C8.08153 105.389 7.49294 104.235 7.13044 103.015C5.84905 98.7074 6.08648 94.4136 7.35096 90.1289C9.78054 81.8971 14.9543 75.4643 20.7956 69.4593C21.0628 69.2108 21.2809 68.9143 21.4386 68.5852C16.8372 71.0596 12.9159 74.3769 9.28556 78.3671C10.72 71.5693 26.5822 59.5503 34.9541 58.9482L30.711 61.3555C30.761 61.4889 30.8112 61.6222 30.8616 61.7554L34.2202 60.5588C34.2582 60.6119 34.2962 60.6647 34.3337 60.718L28.5828 64.9422L28.7266 65.1623L31.1289 63.969V64.7073C33.6004 63.0856 36.1203 61.6838 39.0203 61.0671L37.7285 61.7778C37.7494 61.851 37.7701 61.9243 37.7906 61.9977C39.2856 61.4936 40.7806 60.9897 42.2757 60.4861C42.3092 60.5618 42.3426 60.6378 42.3764 60.7136L39.2957 62.2352C39.3189 62.3246 39.3421 62.4142 39.3641 62.5039L42.9608 61.4435L36.8476 65.8362L37.047 66.164C41.3871 62.8634 46.2681 60.8319 51.587 59.8209C48.0373 61.2093 44.3942 62.4077 41.3916 64.9352C43.9724 64.9035 46.5787 64.4842 49.0474 66.4128L47.4723 66.6304C51.7992 68.1422 55.2783 70.7012 57.7091 74.6651L55.0564 72.9354C54.967 73.0399 54.8777 73.1444 54.7886 73.2491C55.9422 75.6073 58.2944 76.7383 60.2975 78.2532C57.3139 77.3341 54.7787 75.6698 52.4008 73.7208C54.9612 76.8252 58.4318 78.6834 61.8402 80.6338C56.7168 78.7818 52.5749 75.4224 48.4751 71.7651C49.0889 74.0435 55.6452 79.3608 61.2248 82.4746C66.2155 85.2597 71.6693 86.2659 77.2162 87.0654L77.1758 87.4434C76.0621 87.4434 74.9357 87.5537 73.8369 87.4261C64.8442 86.3909 56.214 83.2846 48.624 78.3512C46.4103 76.9266 44.3794 75.2176 42.265 73.6386C42.8369 74.9822 46.1175 78.1862 50.1375 80.8052C53.1341 82.7573 56.3649 84.3497 59.3722 86.0358C56.2173 85.5071 53.1282 84.6419 50.1576 83.455C47.1668 82.2683 44.3767 80.6278 41.8854 78.5912C44.8857 82.3762 48.7389 84.9437 53.2068 86.697C57.6463 88.4391 62.2868 88.8944 67.0584 89.0352C64.0514 91.4309 62.2358 94.4419 61.6424 98.172C62.7498 95.9505 63.7776 93.6811 65.7587 92.0402C63.3034 95.8131 62.0526 99.9906 61.591 104.465C62.1765 103.154 62.7241 101.824 63.3548 100.536C64.8456 97.4911 66.2841 94.3351 68.9986 92.1961C71.4075 90.2964 74.2452 89.212 77.4941 89.5903C71.0358 91.2352 66.3909 94.8816 64.2615 101.378C67.7992 99.8736 70.6839 97.4096 73.5911 94.9791C73.6774 95.0599 73.7638 95.1406 73.8503 95.2212C72.8462 96.4259 71.849 97.6341 70.8356 98.8295C69.8325 100.062 68.7391 101.217 67.5645 102.287C68.2951 101.813 69.0423 101.362 69.7516 100.857C70.5028 100.324 71.2401 99.7652 71.9421 99.1689C72.6148 98.5964 73.258 97.9901 73.8691 97.3524C74.4959 96.6995 75.0675 95.9936 75.7715 95.3901C74.6089 98.9902 72.2476 101.83 69.9665 104.731C73.2166 102.11 75.2677 98.5691 77.4177 95.1256C73.5761 104.907 66.625 111.683 57.1437 116.107C57.4784 115.998 57.8135 115.891 58.148 115.782C58.5288 115.621 58.9478 115.573 59.3553 115.643C57.8937 116.383 56.4321 117.123 54.9707 117.863C63.1278 115.709 69.9207 110.954 76.8161 106.395L77.0105 106.663C74.9214 108.247 72.9015 109.936 70.7237 111.387C68.5543 112.832 66.2176 114.025 63.9708 115.357C62.5958 116.172 61.5034 117.465 59.8232 117.782C59.7006 117.805 59.661 118.263 59.5816 118.519C59.8743 118.598 60.2199 118.82 60.4513 118.735C62.4665 117.989 64.4613 117.186 66.4629 116.403C67.0288 116.181 67.5979 115.969 68.1656 115.752C68.2092 115.845 68.2528 115.938 68.2965 116.03L58.0153 121.037C58.044 121.113 58.0729 121.189 58.1019 121.265L61.1574 120.22L61.2542 120.405C60.5322 120.887 59.8102 121.368 58.9958 121.912L59.5075 122.186C58.3796 123.475 57.2993 124.792 56.1328 126.028C51.8689 130.546 49.4572 135.772 49.8556 142.103C49.8887 142.631 49.9531 143.156 50.0351 144.024C48.9369 143.263 48.082 142.657 47.2138 142.07C44.6918 140.365 42.2532 138.584 40.263 136.225C37.5657 133.028 36.1548 129.398 36.1706 125.213C36.1706 125.066 36.1474 124.919 36.1243 124.678C35.3404 126.742 35.553 131.7 37.4214 135.688C39.0257 139.113 41.278 142.049 44.1088 144.846C41.6767 143.686 38.2717 140.208 36.3443 136.837C35.0509 134.574 33.9027 132.816 33.7037 126.105C32.9041 127.686 33.016 132.679 33.8339 135.203C34.7905 138.168 36.2195 140.959 38.0656 143.469C36.4735 142.284 35.1894 140.734 34.3212 138.949C33.441 137.172 32.6032 135.307 32.1879 133.385C31.7827 131.385 31.6529 129.339 31.8022 127.303C31.9271 125.34 32.5129 123.407 32.9412 121.231C27.8712 123.571 24.131 127.062 21.8085 132.013C19.503 136.928 19.0384 142.156 19.29 147.499C18.7732 143.599 18.7572 139.739 19.7395 135.879C20.6955 132.097 22.3792 128.538 24.6965 125.401C22.3401 126.748 20.6429 128.772 19.4695 131.118C18.3141 133.429 17.5534 135.936 16.6992 138.152C16.2204 136.252 17.8432 129.299 19.8612 125.178C21.9275 120.958 24.949 117.654 29.1959 115.518C24.8304 116.672 21.4553 119.153 19.0706 122.959C16.7459 126.664 15.8704 130.789 15.575 135.094C13.8584 128.299 14.5223 121.871 18.4053 115.893C14.9796 118.593 12.6237 122.422 11.7575 126.698C11.4409 125.438 11.7529 123.295 12.515 121.218C14.2825 116.402 17.5467 112.775 21.783 110.054C24.1292 108.547 26.7054 107.397 29.1744 106.08C29.3731 105.975 29.545 105.821 29.9851 105.508C26.9178 106.207 24.2575 107.176 21.8842 108.694C19.5413 110.193 17.3906 111.993 15.3719 113.498C15.4949 112.516 19.201 108.55 22.5877 106.555C25.6519 104.75 28.9807 103.75 32.4552 103.202C24.3444 102.118 18.5619 106.243 13.302 112.039C9.90678 106.46 8.23162 100.754 9.79282 94.3562C8.04377 98.2922 8.00185 102.348 8.56657 106.573ZM59.4009 92.5807C57.8564 98.6504 54.728 103.697 50.1169 107.848C45.5769 111.935 40.2336 114.606 34.4315 116.472C34.4806 116.602 34.5297 116.732 34.579 116.862L41.8889 115.871L39.0845 117.4C45.3673 116.616 51.3957 112.9 55.5611 107.299C58.1138 103.914 59.8636 99.9919 60.6786 95.8305L57.1935 102.523L56.8096 102.354C58.2135 99.2635 59.0894 95.9598 59.4009 92.58V92.5807ZM26.3065 80.3982C29.3479 85.607 33.6333 89.2491 39.5026 90.8063C43.6164 91.898 50.1609 91.5766 51.9734 90.2378C42.2196 89.9109 33.1566 88.0305 26.3065 80.3982ZM58.1679 121.665C50.7437 124.584 46.5518 132.536 47.5467 138.652C49.3215 131.977 51.0082 128.83 58.1679 121.665ZM56.9382 95.4147C52.4089 104.664 45.264 111.017 35.686 114.706C44.8936 112.625 53.8264 105.692 56.9382 95.4147ZM36.912 92.542C41.1127 95.5013 54.4572 93.819 57.1884 89.9899C50.5748 92.5086 43.8777 93.5447 36.912 92.5425V92.542ZM35.8326 112.294C42.5187 112.117 53.6398 102.999 53.901 97.4188C49.8463 104.892 43.4609 109.343 35.8326 112.294V112.294ZM35.2654 110.763C41.8974 108.814 47.9889 106.049 51.505 99.571C47.3832 105.17 41.4149 108.081 35.2654 110.764V110.763Z" fill="white" fill-opacity="0.14"/>
<path fill-rule="evenodd" clip-rule="evenodd" d="M219.165 104.334C218.697 99.8368 217.401 95.5919 214.718 91.8424C214.811 91.7813 214.903 91.7203 214.994 91.6591C215.766 92.706 216.608 93.7091 217.29 94.8114C217.991 95.9431 218.535 97.1716 219.234 98.308C218.529 94.6529 216.867 91.5481 213.801 89.0693C223.866 88.9863 232.694 86.1639 239.285 78.1841C234.463 82.5962 228.54 84.5856 222.306 85.885C222.053 85.9112 221.797 85.8638 221.569 85.7483C228.295 82.9938 234.113 79.032 238.783 73.4514C228.557 81.996 216.948 86.9773 203.626 87.6063C203.537 87.4149 203.449 87.2237 203.36 87.0325C215.374 86.0513 225.052 80.7343 232.688 71.6413C228.793 74.9111 224.861 78.1466 220.066 80.1139C222.758 78.4121 225.531 76.8265 227.703 74.4054C225.346 76.0442 222.934 77.5656 220.144 78.4067C222.347 76.9329 224.676 75.6228 226.042 73.2484L225.817 72.9053L223.151 74.5953C223.401 73.4752 225.275 71.1792 227.571 69.696C229.412 68.5066 231.457 67.6342 233.389 66.6313L232.095 66.4865C232.079 66.3776 232.063 66.2692 232.046 66.1603C234.197 64.5618 236.719 64.8576 239.526 65.0807C237.994 63.4785 236.209 62.7409 234.485 61.9657C232.718 61.1711 230.876 60.5437 229.091 59.7834C234.081 60.6783 238.811 62.6654 242.943 65.6024C243.016 65.4857 243.089 65.3689 243.162 65.2522L238.243 61.7618C238.269 61.6998 238.295 61.6374 238.321 61.5754L241.992 62.7631C242.023 62.6969 242.055 62.6301 242.086 62.5639L238.325 60.6874L238.387 60.4761L243.059 62.016C243.082 61.9516 243.107 61.8869 243.13 61.8228L241.79 61.0981C244.856 61.7259 247.503 63.2133 250.23 65.2308L249.544 63.94L252.072 65.1896C252.125 65.1159 252.178 65.042 252.231 64.9679L246.278 60.6234C246.312 60.5654 246.346 60.5073 246.38 60.4492L250.676 62.0887C250.723 61.9903 250.768 61.8916 250.813 61.7931L246.132 59.125C250.811 60.0637 255.073 61.9847 259.018 64.5671C264.371 68.0706 268.755 72.5006 271.572 78.3421C267.991 74.4698 264.01 71.1161 259.271 68.6855C260.667 70.1876 262.094 71.6638 263.454 73.1975C267.263 77.4893 270.525 82.1593 272.588 87.5403C274.503 92.5364 275.212 97.6917 273.652 102.951C273.278 104.134 272.766 105.268 272.126 106.33C272.758 102.382 272.675 98.5485 271.168 94.7987C271.538 97.7872 271.716 100.764 270.995 103.721C270.28 106.649 269.23 109.414 267.395 111.994C262.201 106.164 256.363 102.135 248.222 103.19C255.468 104.152 261.286 107.449 265.354 113.623C263.953 112.438 262.629 111.142 261.129 110.1C259.609 109.056 258.001 108.149 256.322 107.388C254.624 106.608 252.815 106.071 251.055 105.429C251.014 105.518 250.974 105.607 250.933 105.696C251.206 105.843 251.47 106.009 251.753 106.131C257.115 108.458 262.035 111.404 265.57 116.216C267.466 118.797 268.757 121.654 269.09 124.882C269.128 125.294 269.095 125.709 268.992 126.11C267.89 121.95 265.638 118.575 262.329 115.844C266.331 121.841 266.772 128.356 265.194 135.181C265.039 133.99 264.895 132.798 264.726 131.609C264.07 126.987 262.394 122.837 258.953 119.565C256.868 117.583 254.453 116.125 251.564 115.49C260.996 120.549 263.392 129.357 264.185 139.026C262.979 133.659 260.943 128.78 256.197 125.45C260.792 131.834 262.474 138.944 261.812 146.647L261.473 146.7C261.473 146.188 261.469 145.675 261.473 145.163C261.513 140.76 260.952 136.463 259.144 132.402C256.938 127.451 253.293 123.893 248.462 121.51C248.18 121.409 247.89 121.329 247.596 121.272C250.793 130.135 248.924 137.684 242.252 144.034C244.226 141.364 245.998 138.553 246.86 135.29C247.71 132.076 248.144 128.828 246.966 125.568C247.572 133.933 243.555 139.886 237.126 144.602C242.454 138.864 246.249 132.568 244.661 124.274C244.514 125.788 244.485 127.324 244.197 128.81C243.29 133.49 240.437 136.919 236.808 139.768C235.148 141.072 233.378 142.235 231.652 143.453C231.425 143.586 231.188 143.702 230.944 143.801C230.893 143.523 230.867 143.242 230.865 142.96C231.537 136.179 229.028 130.601 224.424 125.8C223.444 124.778 222.513 123.707 221.592 122.631C221.453 122.469 221.496 122.148 221.419 121.691L219.47 120.404C219.501 120.339 219.532 120.275 219.562 120.21C220.071 120.382 220.586 120.545 221.092 120.729C221.616 120.92 222.133 121.131 222.653 121.333C222.697 121.242 222.74 121.151 222.784 121.06L212.43 116.007C212.472 115.909 212.514 115.811 212.556 115.714C214.359 116.432 216.163 117.15 217.966 117.868C218.783 118.191 219.586 118.61 220.435 118.772C220.907 118.861 221.462 118.509 222.133 118.31C220.742 117.727 219.371 117.402 218.316 116.64C217.24 115.864 216.176 115.103 215.045 114.397C211.887 112.425 208.819 110.31 205.715 108.251C205.334 107.999 204.951 107.748 204.745 107.284C211.567 111.409 218.125 115.919 225.964 117.919L221.372 115.668C221.403 115.589 221.434 115.51 221.465 115.431L223.573 116.078C214.044 111.635 207.068 104.775 203.226 94.9062C205.437 98.5153 207.597 102.176 210.973 104.911C208.497 101.914 206.105 98.8705 204.827 95.1047C207.16 97.9605 209.871 100.34 213.119 102.074C211.06 99.8857 209.001 97.697 206.942 95.508L207.192 95.2437L216.19 101.726L216.578 101.332C215.751 98.3098 214.003 95.865 211.627 93.7976C209.218 91.702 206.417 90.432 203.315 89.5185C204.174 89.5185 205.055 89.3976 205.886 89.55C206.859 89.7284 207.794 90.134 208.738 90.4591C212.644 91.8027 214.541 95.0869 216.328 98.4326C217.359 100.356 218.226 102.364 219.165 104.334ZM220.336 96.4106C221.474 101.62 224.028 106.415 227.717 110.264C231.645 114.391 238.298 117.323 241.809 117.452L238.992 115.9L246.388 116.871C246.416 116.76 246.443 116.649 246.471 116.537C234.403 112.515 224.981 105.706 221.468 92.6743L221.028 92.8765C221.902 95.9945 222.777 99.1124 223.652 102.23L223.467 102.324C222.424 100.353 221.38 98.3816 220.336 96.4102V96.4106ZM254.578 80.2066C247.744 88.0349 238.554 89.8813 228.82 90.3536C238.958 93.487 249.087 89.857 254.578 80.2066ZM233.152 138.231C234.171 130.907 228.294 123.529 222.481 121.699C227.584 126.378 231.664 131.476 233.151 138.232L233.152 138.231ZM245.201 114.686C240.608 112.938 236.409 110.554 232.747 107.255C229.136 104.003 226.171 100.099 224.006 95.749C226.658 105.286 236.048 112.907 245.2 114.687L245.201 114.686ZM243.548 92.8165C240.407 92.7357 237.018 92.893 233.696 92.4936C230.396 92.0965 227.164 91.1388 223.996 90.4479C227.139 93.9413 239.983 95.4249 243.548 92.8165ZM227.099 98.0369C228.343 104.085 238.586 112.249 245.196 112.34C237.485 109.4 231.2 105.09 227.099 98.0369ZM245.572 110.788C239.465 108.139 233.532 105.233 229.356 99.7358C232.927 106.124 238.975 108.86 245.572 110.787L245.572 110.788Z" fill="white" fill-opacity="0.14"/>
<path fill-rule="evenodd" clip-rule="evenodd" d="M110.963 241.938C111.665 245.708 112.564 249.364 114.381 252.747C112.37 246.144 111.564 239.354 111.302 232.476L110.924 232.509V239.276C109.966 235.414 110.061 224.713 111.053 223.737C111.243 224.108 111.411 224.49 111.555 224.881C112.737 228.787 114.432 232.519 116.595 235.98C119.363 240.455 122.377 244.779 125.294 249.162C126.073 250.332 125.646 252.998 124.338 254.305C121.985 256.658 119.059 257.171 115.904 256.68C114.446 256.453 113.626 255.393 113.312 254.039C112.487 250.476 111.731 246.898 110.976 243.32C110.883 242.877 110.963 242.399 110.963 241.938Z" fill="white" fill-opacity="0.14"/>
<path fill-rule="evenodd" clip-rule="evenodd" d="M169.875 223.514C170.139 224.049 170.369 224.298 170.37 224.548C170.393 228.818 170.386 233.087 170.386 237.355C170.293 237.363 170.2 237.37 170.108 237.379C169.971 235.802 169.835 234.226 169.698 232.65C169.212 239.448 168.351 246.17 166.26 252.689L166.598 252.805C167.153 251.304 167.767 249.821 168.248 248.297C168.746 246.723 169.116 245.109 169.782 243.549C169.453 245.386 169.183 247.237 168.779 249.059C168.405 250.746 167.868 252.395 167.442 254.072C167.11 255.378 166.371 256.349 165.048 256.608C161.808 257.242 158.804 256.721 156.426 254.25C154.684 252.441 154.697 250.209 156.171 248.225C160.424 242.502 164.252 236.511 167.278 230.043C168.074 228.344 168.619 226.529 169.29 224.77C169.417 224.437 169.59 224.121 169.875 223.514Z" fill="white" fill-opacity="0.14"/>
<path fill-rule="evenodd" clip-rule="evenodd" d="M179.678 227.534C180.684 224.944 181.69 222.354 182.697 219.763L183.09 219.895C181.844 223.898 180.598 227.9 179.351 231.902C179.186 231.91 179.021 231.918 178.856 231.926C177.516 229.739 174.829 228.627 174.691 225.418C174.527 221.581 173.95 217.746 173.325 213.948C172.758 210.505 171.958 207.087 169.639 203.94C172.83 204.096 175.577 204.895 178.487 206.352C177.242 204.036 175.442 202.751 173.51 201.597L173.666 201.248C175.986 202.055 178.305 202.863 180.624 203.671C181.313 203.912 181.983 204.242 182.691 204.382C183.415 204.526 183.664 204.796 183.52 205.548C182.541 210.698 181.596 215.854 180.631 221.007C180.228 223.159 179.803 225.306 179.387 227.454L179.678 227.534ZM173.041 209.38C173.759 214.221 174.439 218.805 175.141 223.539C175.75 218.618 175.031 214.038 173.041 209.38Z" fill="white" fill-opacity="0.14"/>
<path fill-rule="evenodd" clip-rule="evenodd" d="M101.418 231.891C100.185 227.966 98.9521 224.04 97.7195 220.115L98.1483 219.962C99.1139 222.455 100.079 224.948 101.045 227.44L101.33 227.376C101.156 226.353 100.998 225.328 100.807 224.308C99.7721 218.779 98.7341 213.25 97.6927 207.723C97.5164 206.78 97.017 205.671 97.3394 204.932C97.5919 204.353 98.8784 204.214 99.7153 203.903C102.19 202.987 104.669 202.084 107.242 201.346C105.433 202.695 103.609 203.959 102.302 206.278C105.187 204.941 107.893 204.116 111.018 203.941C107.198 209.838 107.24 216.513 106.27 222.942L105.927 222.902C106.133 220.643 106.239 218.368 106.573 216.128C106.905 213.904 107.466 211.715 107.7 209.429C107.309 210.471 106.759 211.483 106.559 212.561C106.074 215.167 105.675 217.796 105.407 220.433C105.305 221.429 105.64 222.476 105.807 223.495C106.175 225.738 106.221 227.829 104.105 229.413C103.243 230.059 102.634 231.044 101.911 231.875C101.746 231.88 101.582 231.886 101.418 231.891Z" fill="white" fill-opacity="0.14"/>
<path fill-rule="evenodd" clip-rule="evenodd" d="M82.53 74.4828C83.7023 74.0679 84.9271 73.7558 86.0242 73.194C86.5641 72.9174 86.9673 72.2266 87.2518 71.6363C87.5606 70.9936 87.7113 70.2671 88.6284 70.3934C89.4854 70.5115 90.1572 70.919 90.354 71.8503C90.4478 72.4394 90.366 73.0431 90.1188 73.5859C89.8717 74.1288 89.4701 74.5868 88.9643 74.9028C86.2199 76.455 83.1019 77.1912 80.2781 76.0736C77.3973 74.9334 74.1912 73.696 72.8334 70.3336C72.476 69.4484 72.4258 68.6357 73.0336 67.8434C73.7164 66.9533 74.6318 66.439 75.7249 66.5852C76.6977 66.7152 77.2145 67.491 77.3646 68.442C77.7852 71.1136 79.1739 72.8799 81.9076 73.4602C82.1251 73.5065 82.2907 73.7987 82.4802 73.9764C82.4967 74.1455 82.5133 74.3143 82.53 74.4828Z" fill="white" fill-opacity="0.14"/>
<path fill-rule="evenodd" clip-rule="evenodd" d="M198.169 74.1738C198.536 73.8142 198.699 73.5133 198.923 73.4577C201.425 72.8375 202.914 71.3249 203.311 68.7349C203.563 67.087 204.574 66.2945 205.869 66.6086C207.629 67.0361 208.613 68.4977 208.033 70.0406C207.376 71.788 206.096 73.2307 204.439 74.0906C203.39 74.6484 202.308 75.1435 201.2 75.5733C197.923 76.8646 194.914 76.6313 191.827 74.926C191.323 74.6705 190.915 74.2609 190.66 73.757C190.406 73.2531 190.319 72.6812 190.412 72.1244C190.485 71.5601 191.043 70.9251 191.556 70.5848C192.222 70.143 192.939 70.2312 193.332 71.1503C194.319 73.4605 195.842 74.3322 198.169 74.1738Z" fill="white" fill-opacity="0.14"/>
<path fill-rule="evenodd" clip-rule="evenodd" d="M166.895 145.3C159.645 149.04 151.892 150.826 143.792 151.267C131.585 151.931 120.14 148.863 113.938 145.275C131.594 151.18 149.246 151.188 166.895 145.3Z" fill="white" fill-opacity="0.14"/>
<path fill-rule="evenodd" clip-rule="evenodd" d="M261.396 57.001C267.307 59.9517 271.729 64.3845 274.504 70.3807C277.607 77.0862 278.207 84.1488 277.306 91.4132C276.843 77.685 271.377 66.3124 261.396 57.001Z" fill="white" fill-opacity="0.14"/>
<path fill-rule="evenodd" clip-rule="evenodd" d="M19.3576 57.0322C14.5521 61.3775 10.6602 66.6366 7.909 72.5026C5.15716 78.4121 3.67983 84.8348 3.57308 91.3529C2.05497 88.385 3.66387 76.4015 5.82708 71.3952C8.61755 64.9344 13.1096 60.1966 19.3576 57.0322Z" fill="white" fill-opacity="0.14"/>
<path fill-rule="evenodd" clip-rule="evenodd" d="M141.341 246.072C140.842 243.98 141.838 242.57 143.887 241.707C145.175 241.164 146.309 241.501 146.623 242.863C147.392 246.198 147.167 249.46 145.301 252.442C144.617 253.535 143.696 253.471 142.917 252.399C141.578 250.556 141.293 248.444 141.341 246.072Z" fill="white" fill-opacity="0.14"/>
<path fill-rule="evenodd" clip-rule="evenodd" d="M133.543 245.79C133.839 244.618 134.056 243.418 134.456 242.283C134.737 241.486 135.473 241.335 136.286 241.531C138.487 242.063 139.555 243.465 139.518 245.733C139.479 248.103 139.279 250.428 137.807 252.42C136.973 253.548 136.112 253.515 135.384 252.335C134.157 250.347 133.701 248.157 133.543 245.79Z" fill="white" fill-opacity="0.14"/>
<path fill-rule="evenodd" clip-rule="evenodd" d="M147.792 246.462C147.947 245.477 147.837 243.626 149.39 242.359C150.517 241.441 151.456 241.604 152.085 242.897C152.94 244.653 153 246.446 152.079 248.219C151.62 249.102 151.116 249.966 150.712 250.874C150.322 251.751 149.767 251.753 149.202 251.181C148.129 250.095 147.612 248.758 147.792 246.462Z" fill="white" fill-opacity="0.14"/>
<path fill-rule="evenodd" clip-rule="evenodd" d="M133.073 247.32C133.102 248.036 132.98 248.749 132.717 249.415C132.454 250.081 132.054 250.684 131.545 251.187C131.099 251.654 130.505 251.795 130.205 251.168C129.433 249.556 128.589 247.935 128.149 246.221C127.971 245.527 127.971 244.799 128.15 244.105C128.329 243.411 128.68 242.774 129.172 242.252C129.707 241.672 130.275 241.61 131.007 242.081C132.531 243.062 132.798 244.581 132.976 246.171C133.02 246.553 133.042 246.937 133.073 247.32Z" fill="white" fill-opacity="0.14"/>
<path fill-rule="evenodd" clip-rule="evenodd" d="M0.335407 83.8924C-1.50004 76.1547 4.51682 62.2585 10.6106 60.0723C4.47165 66.9405 1.10813 74.8603 0.335407 83.8924Z" fill="white" fill-opacity="0.14"/>
<path fill-rule="evenodd" clip-rule="evenodd" d="M280.402 83.8164C279.664 74.871 276.301 67.0474 270.258 60.1318C276.484 62.6445 282.025 75.7018 280.402 83.8164Z" fill="white" fill-opacity="0.14"/>
<path fill-rule="evenodd" clip-rule="evenodd" d="M117.283 208.919C116.681 208.471 115.932 208.13 115.506 207.553C114.321 205.943 113.769 204.076 113.672 202.07C113.64 201.42 113.775 201.086 114.517 201.042C115.754 200.968 116.985 200.783 118.143 200.653C117.94 203.43 117.751 206.014 117.562 208.599L117.283 208.919Z" fill="white" fill-opacity="0.14"/>
<path fill-rule="evenodd" clip-rule="evenodd" d="M162.911 200.663C164.358 200.827 165.473 200.91 166.567 201.111C166.721 201.181 166.854 201.288 166.955 201.423C167.055 201.558 167.119 201.717 167.141 201.884C166.924 203.964 166.48 205.984 165.181 207.706C165.021 207.969 164.802 208.191 164.541 208.354C164.176 208.521 163.721 208.667 163.359 208.584C163.188 208.544 163.08 207.958 163.051 207.613C162.884 205.583 162.731 203.552 162.622 201.518C162.604 201.203 162.835 200.875 162.911 200.663Z" fill="white" fill-opacity="0.14"/>
<path fill-rule="evenodd" clip-rule="evenodd" d="M78.4161 199.328C80.6192 209.611 83.3936 219.407 89.1045 228.421C84.4835 225.182 77.1602 205.157 78.4161 199.328Z" fill="white" fill-opacity="0.14"/>
<path fill-rule="evenodd" clip-rule="evenodd" d="M192.077 228.122C197.529 219.129 200.231 209.151 202.585 199.047C201.572 209.632 198.791 219.582 192.077 228.122Z" fill="white" fill-opacity="0.14"/>
<path fill-rule="evenodd" clip-rule="evenodd" d="M159.595 200.828C159.803 203.335 159.618 205.539 158.195 207.464C157.742 208.075 157.022 208.101 156.735 207.327C156.226 205.885 155.793 204.417 155.436 202.93C155.433 202.771 155.471 202.614 155.546 202.473C155.62 202.332 155.73 202.213 155.863 202.126C157.025 201.665 158.221 201.294 159.595 200.828Z" fill="white" fill-opacity="0.14"/>
<path fill-rule="evenodd" clip-rule="evenodd" d="M121.095 200.804C122.581 201.309 123.746 201.676 124.881 202.117C125.093 202.2 125.36 202.617 125.314 202.812C124.972 204.264 124.673 205.745 124.126 207.123C123.712 208.166 122.93 208.186 122.362 207.174C121.857 206.231 121.5 205.217 121.304 204.165C121.103 203.17 121.164 202.123 121.095 200.804Z" fill="white" fill-opacity="0.14"/>
<path fill-rule="evenodd" clip-rule="evenodd" d="M104.748 80.1172C102.926 74.3109 99.2819 70.0827 93.7734 67.4512C100.602 68.9825 104.855 74.5323 104.748 80.1172Z" fill="white" fill-opacity="0.14"/>
<path fill-rule="evenodd" clip-rule="evenodd" d="M175.787 80.6551C175.914 75.1234 179.172 69.4408 187.204 67.2344C185.392 68.439 183.627 69.3442 182.205 70.6299C180.7 71.9978 179.385 73.561 178.295 75.2779C177.242 76.9369 176.603 78.8588 175.787 80.6551Z" fill="white" fill-opacity="0.14"/>
<path fill-rule="evenodd" clip-rule="evenodd" d="M129.745 207.818C128.366 206.495 127.738 205.034 127.651 203.105L131.321 203.618C130.773 205.076 130.295 206.35 129.745 207.818Z" fill="white" fill-opacity="0.14"/>
<path fill-rule="evenodd" clip-rule="evenodd" d="M151.038 207.838C150.482 206.38 149.997 205.112 149.439 203.65L153.001 203.104C153.114 205.02 152.393 206.408 151.038 207.838Z" fill="white" fill-opacity="0.14"/>
<path fill-rule="evenodd" clip-rule="evenodd" d="M97.7557 242.562C98.0344 246.034 99.139 249.389 100.977 252.348C98.3397 251.55 96.3928 245.72 97.7557 242.562Z" fill="white" fill-opacity="0.14"/>
<path fill-rule="evenodd" clip-rule="evenodd" d="M179.59 252.72C181.627 249.297 182.864 245.96 182.92 242.252C184.253 245.61 182.975 250.615 179.59 252.72Z" fill="white" fill-opacity="0.14"/>
<path fill-rule="evenodd" clip-rule="evenodd" d="M73.8053 61.4779L59.5752 60.0847C64.3941 59.4311 69.231 59.8157 73.8053 61.4779Z" fill="white" fill-opacity="0.14"/>
<path fill-rule="evenodd" clip-rule="evenodd" d="M207.002 61.4182C211.934 59.8359 216.659 59.3888 221.297 60.1049L207.002 61.4182Z" fill="white" fill-opacity="0.14"/>
<path fill-rule="evenodd" clip-rule="evenodd" d="M86.2974 199.537C82.3288 195.889 79.2671 191.055 76.6641 185.895C79.962 190.565 83.2602 195.235 86.2974 199.537Z" fill="white" fill-opacity="0.14"/>
<path fill-rule="evenodd" clip-rule="evenodd" d="M204.188 185.648C201.925 190.35 199.127 194.69 195.419 198.415C198.342 194.161 201.265 189.905 204.188 185.648Z" fill="white" fill-opacity="0.14"/>
<path fill-rule="evenodd" clip-rule="evenodd" d="M102.206 71.0027C98.9655 67.7052 95.0592 65.4795 90.7402 63.7921C93.2947 63.325 100.555 67.8766 102.206 71.0027Z" fill="white" fill-opacity="0.14"/>
<path fill-rule="evenodd" clip-rule="evenodd" d="M191.169 63.2871C184.293 66.1927 182.652 67.2512 178.627 70.9841C179.654 67.9795 186.306 64.2047 191.169 63.2871Z" fill="white" fill-opacity="0.14"/>
<path fill-rule="evenodd" clip-rule="evenodd" d="M181.039 73.5186C179.259 77.0515 178.081 80.6982 178.776 84.7387C177.194 82.0882 178.303 76.6095 181.039 73.5186Z" fill="white" fill-opacity="0.14"/>
<path fill-rule="evenodd" clip-rule="evenodd" d="M101.892 84.9664C102.602 80.9213 101.653 77.3072 99.7188 73.7041C102.222 75.7977 103.644 82.3002 101.892 84.9664Z" fill="white" fill-opacity="0.14"/>
<path fill-rule="evenodd" clip-rule="evenodd" d="M205.828 60.8777C208.308 59.2097 211.266 58.5951 214.643 58.6961L205.828 60.8777Z" fill="white" fill-opacity="0.14"/>
<path fill-rule="evenodd" clip-rule="evenodd" d="M195.782 70.5123C196.46 70.5123 197.1 70.3863 197.652 70.5536C198.068 70.6798 198.37 71.1814 198.723 71.5157C198.368 71.8037 198.044 72.2818 197.653 72.3446C196.393 72.5478 195.691 71.818 195.782 70.5123Z" fill="white" fill-opacity="0.14"/>
<path fill-rule="evenodd" clip-rule="evenodd" d="M79.6146 69.3545C80.3276 69.702 81.0127 69.9462 81.5789 70.3548C81.7196 70.4859 81.8256 70.6499 81.8871 70.8321C81.9487 71.0143 81.9639 71.2089 81.9314 71.3985C81.8388 71.645 81.2696 71.885 80.9474 71.8431C79.6088 71.6689 79.0717 70.6572 79.6146 69.3545Z" fill="white" fill-opacity="0.14"/>
<path fill-rule="evenodd" clip-rule="evenodd" d="M66.4131 58.8108C69.3124 58.5586 72.2173 59.2274 74.7145 60.7221C71.8321 60.0586 69.1227 59.435 66.4131 58.8108Z" fill="white" fill-opacity="0.14"/>
<path fill-rule="evenodd" clip-rule="evenodd" d="M77.9487 61.8991L73.8477 59.0209C75.0065 58.5518 77.5709 60.2992 77.9487 61.8991Z" fill="white" fill-opacity="0.14"/>
<path fill-rule="evenodd" clip-rule="evenodd" d="M207.006 58.9664L202.826 61.8637C203.385 60.2221 205.48 58.7681 207.006 58.9664Z" fill="white" fill-opacity="0.14"/>
<path fill-rule="evenodd" clip-rule="evenodd" d="M197.717 80.9473L204.511 82.101C202.117 82.5025 199.907 81.7889 197.717 80.9473Z" fill="white" fill-opacity="0.14"/>
<path fill-rule="evenodd" clip-rule="evenodd" d="M82.1069 81.1934C79.2463 82.2986 77.4435 82.525 76.1895 82.061L82.1069 81.1934Z" fill="white" fill-opacity="0.14"/>
<path fill-rule="evenodd" clip-rule="evenodd" d="M76.9985 81.4832C74.43 81.7051 72.0613 81.6023 69.8643 80.5947L76.9985 81.4832Z" fill="white" fill-opacity="0.14"/>
<path fill-rule="evenodd" clip-rule="evenodd" d="M208.337 81.4576H203.931L203.922 81.3578L208.343 81.0879C208.341 81.2108 208.339 81.3341 208.337 81.4576Z" fill="white" fill-opacity="0.14"/>
<path fill-rule="evenodd" clip-rule="evenodd" d="M165.929 259.687C166.838 259.394 167.748 259.102 168.657 258.81C168.695 258.916 168.732 259.022 168.77 259.128C167.863 259.434 166.957 259.74 166.051 260.046C166.01 259.926 165.969 259.806 165.929 259.687Z" fill="white" fill-opacity="0.14"/>
<path fill-rule="evenodd" clip-rule="evenodd" d="M112.361 258.948L114.836 259.655C114.806 259.765 114.774 259.875 114.742 259.985L112.264 259.292C112.296 259.177 112.328 259.063 112.361 258.948Z" fill="white" fill-opacity="0.14"/>
<path fill-rule="evenodd" clip-rule="evenodd" d="M188.848 143.92C188.529 145.08 188.21 146.239 187.89 147.398L187.614 147.329C187.927 146.166 188.239 145.004 188.551 143.842L188.848 143.92Z" fill="white" fill-opacity="0.14"/>
</svg>
